{
	"asset":{
		"generator":"Khronos glTF Blender I/O v5.0.21",
		"version":"2.0"
	},
	"scene":0,
	"scenes":[
		{
			"name":"Scene",
			"nodes":[
				0
			]
		}
	],
	"nodes":[
		{
			"mesh":0,
			"name":"Plane",
			"scale":[
				521.6136474609375,
				521.6136474609375,
				521.6136474609375
			],
			"translation":[
				0,
				-52,
				0
			]
		}
	],
	"meshes":[
		{
			"name":"Plane",
			"primitives":[
				{
					"attributes":{
						"POSITION":0,
						"NORMAL":1,
						"TEXCOORD_0":2
					},
					"indices":3
				}
			]
		}
	],
	"accessors":[
		{
			"bufferView":0,
			"componentType":5126,
			"count":1876,
			"max":[
				1,
				0.3359586000442505,
				1
			],
			"min":[
				-1,
				0,
				-1
			],
			"type":"VEC3"
		},
		{
			"bufferView":1,
			"componentType":5126,
			"count":1876,
			"type":"VEC3"
		},
		{
			"bufferView":2,
			"componentType":5126,
			"count":1876,
			"type":"VEC2"
		},
		{
			"bufferView":3,
			"componentType":5123,
			"count":10104,
			"type":"SCALAR"
		}
	],
	"bufferViews":[
		{
			"buffer":0,
			"byteLength":22512,
			"byteOffset":0,
			"target":34962
		},
		{
			"buffer":0,
			"byteLength":22512,
			"byteOffset":22512,
			"target":34962
		},
		{
			"buffer":0,
			"byteLength":15008,
			"byteOffset":45024,
			"target":34962
		},
		{
			"buffer":0,
			"byteLength":20208,
			"byteOffset":60032,
			"target":34963
		}
	],
	"buffers":[
		{
			"byteLength":80240,
			"uri":"floor.bin"
		}
	]
}
