{
	"asset":{
		"generator":"Khronos glTF Blender I/O v5.0.21",
		"version":"2.0"
	},
	"extensionsUsed":[
		"KHR_materials_clearcoat",
		"KHR_lights_punctual"
	],
	"extensionsRequired":[
		"KHR_lights_punctual"
	],
	"extensions":{
		"KHR_lights_punctual":{
			"lights":[
				{
					"color":[
						1,
						0.9597512483596802,
						0.8447675704956055
					],
					"intensity":113557.50777250917,
					"type":"point",
					"name":"pointone"
				}
			]
		}
	},
	"scene":0,
	"scenes":[
		{
			"name":"Scene",
			"nodes":[
				0,
				1,
				2,
				3,
				4,
				5,
				6,
				7
			]
		}
	],
	"nodes":[
		{
			"mesh":0,
			"name":"room",
			"scale":[
				10,
				10,
				10
			]
		},
		{
			"mesh":1,
			"name":"bed",
			"scale":[
				7.144223213195801,
				1,
				3.2111098766326904
			],
			"translation":[
				-2.1671042442321777,
				1,
				5.881853103637695
			]
		},
		{
			"mesh":2,
			"name":"desk",
			"scale":[
				1.839501142501831,
				1,
				1
			],
			"translation":[
				-7.784510612487793,
				1,
				-4.478313446044922
			]
		},
		{
			"mesh":3,
			"name":"screen"
		},
		{
			"extensions":{
				"KHR_lights_punctual":{
					"light":0
				}
			},
			"name":"pointone",
			"rotation":[
				-0.7071068286895752,
				0,
				0,
				0.7071068286895752
			],
			"translation":[
				0,
				12.824833869934082,
				0
			]
		},
		{
			"name":"area",
			"rotation":[
				-0.5,
				-0.4999999701976776,
				0.5,
				0.5
			],
			"scale":[
				1.5972400903701782,
				2.5742807388305664,
				1.5972399711608887
			],
			"translation":[
				-9.14627456665039,
				5.315804481506348,
				-6
			]
		},
		{
			"name":"areatwo",
			"rotation":[
				-0.4777144491672516,
				-0.37992823123931885,
				0.5213338136672974,
				0.5963678956031799
			],
			"scale":[
				10.000001907348633,
				10.000000953674316,
				10
			],
			"translation":[
				-13.776094436645508,
				5.315804481506348,
				0.8152056932449341
			]
		},
		{
			"camera":0,
			"name":"camera",
			"rotation":[
				-0.1641353964805603,
				0.40944230556488037,
				0.07514700293540955,
				0.8942984342575073
			],
			"translation":[
				9.985095024108887,
				11.938732147216797,
				9.892340660095215
			]
		}
	],
	"cameras":[
		{
			"name":"camera",
			"orthographic":{
				"xmag":13.449999809265137,
				"ymag":7.565624892711639,
				"zfar":1000,
				"znear":0.0010000000474974513
			},
			"type":"orthographic"
		}
	],
	"animations":[
		{
			"channels":[
				{
					"sampler":0,
					"target":{
						"node":3,
						"path":"translation"
					}
				},
				{
					"sampler":1,
					"target":{
						"node":3,
						"path":"rotation"
					}
				},
				{
					"sampler":2,
					"target":{
						"node":3,
						"path":"scale"
					}
				}
			],
			"name":"screenAction.001",
			"samplers":[
				{
					"input":16,
					"interpolation":"LINEAR",
					"output":17
				},
				{
					"input":18,
					"interpolation":"STEP",
					"output":19
				},
				{
					"input":18,
					"interpolation":"STEP",
					"output":20
				}
			]
		},
		{
			"channels":[
				{
					"sampler":0,
					"target":{
						"node":7,
						"path":"translation"
					}
				},
				{
					"sampler":1,
					"target":{
						"node":7,
						"path":"rotation"
					}
				},
				{
					"sampler":2,
					"target":{
						"node":7,
						"path":"scale"
					}
				}
			],
			"name":"camMove",
			"samplers":[
				{
					"input":16,
					"interpolation":"LINEAR",
					"output":21
				},
				{
					"input":16,
					"interpolation":"LINEAR",
					"output":22
				},
				{
					"input":18,
					"interpolation":"STEP",
					"output":20
				}
			]
		}
	],
	"materials":[
		{
			"doubleSided":true,
			"name":"room",
			"pbrMetallicRoughness":{
				"baseColorFactor":[
					0.4336879253387451,
					0.4336879253387451,
					0.4336879253387451,
					1
				],
				"metallicFactor":0,
				"roughnessFactor":0.7590909004211426
			}
		},
		{
			"doubleSided":true,
			"name":"bed",
			"pbrMetallicRoughness":{
				"baseColorFactor":[
					0.10198883712291718,
					0.19703564047813416,
					0.8000074625015259,
					1
				],
				"metallicFactor":0,
				"roughnessFactor":0.9954545497894287
			}
		},
		{
			"doubleSided":true,
			"name":"desk",
			"pbrMetallicRoughness":{
				"baseColorFactor":[
					0.11044292151927948,
					0.025764882564544678,
					0.03136543557047844,
					1
				],
				"metallicFactor":0,
				"roughnessFactor":0.5
			}
		},
		{
			"doubleSided":true,
			"extensions":{
				"KHR_materials_clearcoat":{
					"clearcoatFactor":0.5590909123420715
				}
			},
			"name":"screen",
			"pbrMetallicRoughness":{
				"baseColorFactor":[
					0.007771021220833063,
					0.007771021220833063,
					0.007771021220833063,
					1
				],
				"metallicFactor":0.10454545170068741,
				"roughnessFactor":0.07727271318435669
			}
		}
	],
	"meshes":[
		{
			"name":"room",
			"primitives":[
				{
					"attributes":{
						"POSITION":0,
						"NORMAL":1,
						"TEXCOORD_0":2
					},
					"indices":3,
					"material":0
				}
			]
		},
		{
			"name":"bed",
			"primitives":[
				{
					"attributes":{
						"POSITION":4,
						"NORMAL":5,
						"TEXCOORD_0":6
					},
					"indices":7,
					"material":1
				}
			]
		},
		{
			"name":"desk",
			"primitives":[
				{
					"attributes":{
						"POSITION":8,
						"NORMAL":9,
						"TEXCOORD_0":10
					},
					"indices":11,
					"material":2
				}
			]
		},
		{
			"name":"screen",
			"primitives":[
				{
					"attributes":{
						"POSITION":12,
						"NORMAL":13,
						"TEXCOORD_0":14
					},
					"indices":15,
					"material":3
				}
			]
		}
	],
	"accessors":[
		{
			"bufferView":0,
			"componentType":5126,
			"count":78,
			"max":[
				1,
				1.2000000476837158,
				1
			],
			"min":[
				-1.0703046321868896,
				0,
				-1
			],
			"type":"VEC3"
		},
		{
			"bufferView":1,
			"componentType":5126,
			"count":78,
			"type":"VEC3"
		},
		{
			"bufferView":2,
			"componentType":5126,
			"count":78,
			"type":"VEC2"
		},
		{
			"bufferView":3,
			"componentType":5123,
			"count":168,
			"type":"SCALAR"
		},
		{
			"bufferView":4,
			"componentType":5126,
			"count":54,
			"max":[
				1.0448811054229736,
				1,
				1.0448811054229736
			],
			"min":[
				-1.0448811054229736,
				-1,
				-1.0448811054229736
			],
			"type":"VEC3"
		},
		{
			"bufferView":5,
			"componentType":5126,
			"count":54,
			"type":"VEC3"
		},
		{
			"bufferView":6,
			"componentType":5126,
			"count":54,
			"type":"VEC2"
		},
		{
			"bufferView":7,
			"componentType":5123,
			"count":108,
			"type":"SCALAR"
		},
		{
			"bufferView":8,
			"componentType":5126,
			"count":48,
			"max":[
				1,
				3.078970432281494,
				3.710174322128296
			],
			"min":[
				-1,
				-1,
				-3.710174322128296
			],
			"type":"VEC3"
		},
		{
			"bufferView":9,
			"componentType":5126,
			"count":48,
			"type":"VEC3"
		},
		{
			"bufferView":10,
			"componentType":5126,
			"count":48,
			"type":"VEC2"
		},
		{
			"bufferView":11,
			"componentType":5123,
			"count":84,
			"type":"SCALAR"
		},
		{
			"bufferView":12,
			"componentType":5126,
			"count":116,
			"max":[
				-9.110432624816895,
				6.227774143218994,
				-4.3084001541137695
			],
			"min":[
				-9.421765327453613,
				4.108449935913086,
				-7.701210021972656
			],
			"type":"VEC3"
		},
		{
			"bufferView":13,
			"componentType":5126,
			"count":116,
			"type":"VEC3"
		},
		{
			"bufferView":14,
			"componentType":5126,
			"count":116,
			"type":"VEC2"
		},
		{
			"bufferView":15,
			"componentType":5123,
			"count":216,
			"type":"SCALAR"
		},
		{
			"bufferView":16,
			"componentType":5126,
			"count":120,
			"max":[
				1.9833333333333334
			],
			"min":[
				0
			],
			"type":"SCALAR"
		},
		{
			"bufferView":17,
			"componentType":5126,
			"count":120,
			"type":"VEC3"
		},
		{
			"bufferView":18,
			"componentType":5126,
			"count":2,
			"max":[
				1.9833333333333334
			],
			"min":[
				0
			],
			"type":"SCALAR"
		},
		{
			"bufferView":19,
			"componentType":5126,
			"count":2,
			"type":"VEC4"
		},
		{
			"bufferView":20,
			"componentType":5126,
			"count":2,
			"type":"VEC3"
		},
		{
			"bufferView":21,
			"componentType":5126,
			"count":120,
			"type":"VEC3"
		},
		{
			"bufferView":22,
			"componentType":5126,
			"count":120,
			"type":"VEC4"
		}
	],
	"bufferViews":[
		{
			"buffer":0,
			"byteLength":936,
			"byteOffset":0,
			"target":34962
		},
		{
			"buffer":0,
			"byteLength":936,
			"byteOffset":936,
			"target":34962
		},
		{
			"buffer":0,
			"byteLength":624,
			"byteOffset":1872,
			"target":34962
		},
		{
			"buffer":0,
			"byteLength":336,
			"byteOffset":2496,
			"target":34963
		},
		{
			"buffer":0,
			"byteLength":648,
			"byteOffset":2832,
			"target":34962
		},
		{
			"buffer":0,
			"byteLength":648,
			"byteOffset":3480,
			"target":34962
		},
		{
			"buffer":0,
			"byteLength":432,
			"byteOffset":4128,
			"target":34962
		},
		{
			"buffer":0,
			"byteLength":216,
			"byteOffset":4560,
			"target":34963
		},
		{
			"buffer":0,
			"byteLength":576,
			"byteOffset":4776,
			"target":34962
		},
		{
			"buffer":0,
			"byteLength":576,
			"byteOffset":5352,
			"target":34962
		},
		{
			"buffer":0,
			"byteLength":384,
			"byteOffset":5928,
			"target":34962
		},
		{
			"buffer":0,
			"byteLength":168,
			"byteOffset":6312,
			"target":34963
		},
		{
			"buffer":0,
			"byteLength":1392,
			"byteOffset":6480,
			"target":34962
		},
		{
			"buffer":0,
			"byteLength":1392,
			"byteOffset":7872,
			"target":34962
		},
		{
			"buffer":0,
			"byteLength":928,
			"byteOffset":9264,
			"target":34962
		},
		{
			"buffer":0,
			"byteLength":432,
			"byteOffset":10192,
			"target":34963
		},
		{
			"buffer":0,
			"byteLength":480,
			"byteOffset":10624
		},
		{
			"buffer":0,
			"byteLength":1440,
			"byteOffset":11104
		},
		{
			"buffer":0,
			"byteLength":8,
			"byteOffset":12544
		},
		{
			"buffer":0,
			"byteLength":32,
			"byteOffset":12552
		},
		{
			"buffer":0,
			"byteLength":24,
			"byteOffset":12584
		},
		{
			"buffer":0,
			"byteLength":1440,
			"byteOffset":12608
		},
		{
			"buffer":0,
			"byteLength":1920,
			"byteOffset":14048
		}
	],
	"buffers":[
		{
			"byteLength":15968,
			"uri":"room.bin"
		}
	]
}
