{
    "asset" : {
        "generator" : "Khronos glTF Blender I/O v3.3.32",
        "version" : "2.0"
    },
    "scene" : 0,
    "scenes" : [
        {
            "name" : "Scene",
            "nodes" : [
                0
            ]
        }
    ],
    "nodes" : [
        {
            "mesh" : 0,
            "name" : "table_4"
        }
    ],
    "meshes" : [
        {
            "name" : "table_4",
            "primitives" : [
                {
                    "attributes" : {
                        "POSITION" : 0,
                        "NORMAL" : 1
                    },
                    "indices" : 2
                }
            ]
        }
    ],
    "accessors" : [
        {
            "bufferView" : 0,
            "componentType" : 5126,
            "count" : 15373,
            "max" : [
                32.00704574584961,
                10.941570281982422,
                61.03822326660156
            ],
            "min" : [
                -31.99295425415039,
                -52.05842971801758,
                -60.961822509765625
            ],
            "type" : "VEC3"
        },
        {
            "bufferView" : 1,
            "componentType" : 5126,
            "count" : 15373,
            "type" : "VEC3"
        },
        {
            "bufferView" : 2,
            "componentType" : 5123,
            "count" : 18024,
            "type" : "SCALAR"
        }
    ],
    "bufferViews" : [
        {
            "buffer" : 0,
            "byteLength" : 184476,
            "byteOffset" : 0,
            "target" : 34962
        },
        {
            "buffer" : 0,
            "byteLength" : 184476,
            "byteOffset" : 184476,
            "target" : 34962
        },
        {
            "buffer" : 0,
            "byteLength" : 36048,
            "byteOffset" : 368952,
            "target" : 34963
        }
    ],
    "buffers" : [
        {
            "byteLength" : 405000,
            "uri" : "data:application/octet-stream;base64,"
        }
    ]
}
