{
	"asset":{
		"generator":"Khronos glTF Blender I/O v5.0.21",
		"version":"2.0"
	},
	"scene":0,
	"scenes":[
		{
			"name":"Scene",
			"nodes":[
				1,
				3,
				4,
				5,
				9
			]
		}
	],
	"nodes":[
		{
			"mesh":0,
			"name":"screen.001",
			"translation":[
				-0.003695964813232422,
				0,
				0
			]
		},
		{
			"children":[
				0
			],
			"mesh":1,
			"name":"screen",
			"translation":[
				-1.476116418838501,
				1.7344986200332642,
				0
			]
		},
		{
			"mesh":2,
			"name":"bed.001"
		},
		{
			"children":[
				2
			],
			"mesh":3,
			"name":"bed",
			"translation":[
				-0.1319030225276947,
				0.5146646499633789,
				0.8185247182846069
			]
		},
		{
			"mesh":4,
			"name":"room"
		},
		{
			"mesh":5,
			"name":"curtain",
			"translation":[
				0.019044751301407814,
				2.433300495147705,
				-1.400093913078308
			]
		},
		{
			"mesh":6,
			"name":"desk.001",
			"translation":[
				0,
				0.41885992884635925,
				0.16543114185333252
			]
		},
		{
			"mesh":7,
			"name":"desk.002",
			"translation":[
				0,
				0.23111319541931152,
				0.292854368686676
			]
		},
		{
			"mesh":8,
			"name":"desk.003",
			"translation":[
				0,
				0.043366558849811554,
				0.4552842378616333
			]
		},
		{
			"children":[
				6,
				7,
				8
			],
			"mesh":9,
			"name":"desk",
			"translation":[
				0.31206631660461426,
				0.03568293899297714,
				-1.1721630096435547
			]
		}
	],
	"animations":[
		{
			"channels":[
				{
					"sampler":0,
					"target":{
						"node":6,
						"path":"translation"
					}
				}
			],
			"name":"desk.001Action",
			"samplers":[
				{
					"input":40,
					"interpolation":"LINEAR",
					"output":41
				}
			]
		},
		{
			"channels":[
				{
					"sampler":0,
					"target":{
						"node":6,
						"path":"translation"
					}
				}
			],
			"name":"desk.001CloseAction",
			"samplers":[
				{
					"input":40,
					"interpolation":"LINEAR",
					"output":42
				}
			]
		},
		{
			"channels":[
				{
					"sampler":0,
					"target":{
						"node":7,
						"path":"translation"
					}
				}
			],
			"name":"desk.002Action",
			"samplers":[
				{
					"input":40,
					"interpolation":"LINEAR",
					"output":43
				}
			]
		},
		{
			"channels":[
				{
					"sampler":0,
					"target":{
						"node":7,
						"path":"translation"
					}
				}
			],
			"name":"desk.002CloseAction",
			"samplers":[
				{
					"input":40,
					"interpolation":"LINEAR",
					"output":44
				}
			]
		},
		{
			"channels":[
				{
					"sampler":0,
					"target":{
						"node":8,
						"path":"translation"
					}
				}
			],
			"name":"desk.003Action",
			"samplers":[
				{
					"input":40,
					"interpolation":"LINEAR",
					"output":45
				}
			]
		},
		{
			"channels":[
				{
					"sampler":0,
					"target":{
						"node":8,
						"path":"translation"
					}
				}
			],
			"name":"desk.003CloseAction",
			"samplers":[
				{
					"input":40,
					"interpolation":"LINEAR",
					"output":46
				}
			]
		}
	],
	"materials":[
		{
			"doubleSided":true,
			"name":"screen",
			"pbrMetallicRoughness":{
				"baseColorTexture":{
					"index":0
				},
				"metallicFactor":0,
				"roughnessFactor":0.5
			}
		},
		{
			"doubleSided":true,
			"name":"bed",
			"normalTexture":{
				"index":1,
				"scale":0.5
			},
			"pbrMetallicRoughness":{
				"baseColorTexture":{
					"index":2
				},
				"metallicFactor":0,
				"metallicRoughnessTexture":{
					"index":3
				}
			}
		},
		{
			"doubleSided":true,
			"name":"room",
			"normalTexture":{
				"index":4
			},
			"pbrMetallicRoughness":{
				"baseColorTexture":{
					"index":5
				},
				"metallicFactor":0.1863636076450348,
				"metallicRoughnessTexture":{
					"index":6
				}
			}
		},
		{
			"doubleSided":true,
			"name":"curtain",
			"normalTexture":{
				"index":7
			},
			"pbrMetallicRoughness":{
				"baseColorTexture":{
					"index":8
				},
				"metallicFactor":0.145454540848732,
				"metallicRoughnessTexture":{
					"index":9
				}
			}
		},
		{
			"doubleSided":true,
			"name":"desk",
			"normalTexture":{
				"index":10
			},
			"pbrMetallicRoughness":{
				"baseColorTexture":{
					"index":11
				},
				"metallicFactor":0,
				"metallicRoughnessTexture":{
					"index":12
				}
			}
		}
	],
	"meshes":[
		{
			"name":"Plane.003",
			"primitives":[
				{
					"attributes":{
						"POSITION":0,
						"NORMAL":1,
						"TEXCOORD_0":2
					},
					"indices":3,
					"material":0
				}
			]
		},
		{
			"name":"Plane.001",
			"primitives":[
				{
					"attributes":{
						"POSITION":4,
						"NORMAL":5,
						"TEXCOORD_0":6
					},
					"indices":7,
					"material":0
				}
			]
		},
		{
			"name":"Cube.001",
			"primitives":[
				{
					"attributes":{
						"POSITION":8,
						"NORMAL":9,
						"TEXCOORD_0":10
					},
					"indices":11,
					"material":1
				}
			]
		},
		{
			"name":"Cube",
			"primitives":[
				{
					"attributes":{
						"POSITION":12,
						"NORMAL":13,
						"TEXCOORD_0":14
					},
					"indices":15,
					"material":1
				}
			]
		},
		{
			"name":"room.001",
			"primitives":[
				{
					"attributes":{
						"POSITION":16,
						"NORMAL":17,
						"TEXCOORD_0":18
					},
					"indices":19,
					"material":2
				}
			]
		},
		{
			"name":"Mesh",
			"primitives":[
				{
					"attributes":{
						"POSITION":20,
						"NORMAL":21,
						"TEXCOORD_0":22
					},
					"indices":23,
					"material":3
				}
			]
		},
		{
			"name":"Cube.002",
			"primitives":[
				{
					"attributes":{
						"POSITION":24,
						"NORMAL":25,
						"TEXCOORD_0":26
					},
					"indices":27,
					"material":4
				}
			]
		},
		{
			"name":"Cube.004",
			"primitives":[
				{
					"attributes":{
						"POSITION":28,
						"NORMAL":29,
						"TEXCOORD_0":30
					},
					"indices":31,
					"material":4
				}
			]
		},
		{
			"name":"Cube.003",
			"primitives":[
				{
					"attributes":{
						"POSITION":32,
						"NORMAL":33,
						"TEXCOORD_0":34
					},
					"indices":35,
					"material":4
				}
			]
		},
		{
			"name":"desk.002",
			"primitives":[
				{
					"attributes":{
						"POSITION":36,
						"NORMAL":37,
						"TEXCOORD_0":38
					},
					"indices":39,
					"material":4
				}
			]
		}
	],
	"textures":[
		{
			"sampler":0,
			"source":0
		},
		{
			"sampler":0,
			"source":1
		},
		{
			"sampler":0,
			"source":2
		},
		{
			"sampler":0,
			"source":3
		},
		{
			"sampler":0,
			"source":4
		},
		{
			"sampler":0,
			"source":5
		},
		{
			"sampler":0,
			"source":6
		},
		{
			"sampler":0,
			"source":7
		},
		{
			"sampler":0,
			"source":8
		},
		{
			"sampler":0,
			"source":9
		},
		{
			"sampler":0,
			"source":10
		},
		{
			"sampler":0,
			"source":11
		},
		{
			"sampler":0,
			"source":12
		}
	],
	"images":[
		{
			"mimeType":"image/jpeg",
			"name":"screen",
			"uri":"screen.jpg"
		},
		{
			"mimeType":"image/png",
			"name":"bedNormalsNowe",
			"uri":"bedNormalsNowe.png"
		},
		{
			"mimeType":"image/jpeg",
			"name":"bednowe",
			"uri":"bednowe.jpg"
		},
		{
			"mimeType":"image/png",
			"name":"bedrougnes",
			"uri":"bedrougnes.png"
		},
		{
			"mimeType":"image/png",
			"name":"roomNormals",
			"uri":"roomNormals.png"
		},
		{
			"mimeType":"image/png",
			"name":"roomNowe",
			"uri":"roomNowe.png"
		},
		{
			"mimeType":"image/png",
			"name":"roomRougness",
			"uri":"roomRougness.png"
		},
		{
			"mimeType":"image/png",
			"name":"curtinNormalsNowe",
			"uri":"curtinNormalsNowe.png"
		},
		{
			"mimeType":"image/png",
			"name":"curtinNowe",
			"uri":"curtinNowe.png"
		},
		{
			"mimeType":"image/png",
			"name":"curtinRoughness",
			"uri":"curtinRoughness.png"
		},
		{
			"mimeType":"image/png",
			"name":"deskNormal",
			"uri":"deskNormal.png"
		},
		{
			"mimeType":"image/png",
			"name":"deskNowe",
			"uri":"deskNowe.png"
		},
		{
			"mimeType":"image/png",
			"name":"deskRoughness",
			"uri":"deskRoughness.png"
		}
	],
	"accessors":[
		{
			"bufferView":0,
			"componentType":5126,
			"count":4,
			"max":[
				0.007257373072206974,
				0.3286348581314087,
				0.506007730960846
			],
			"min":[
				0.007257253862917423,
				-0.3286350965499878,
				-0.506007730960846
			],
			"type":"VEC3"
		},
		{
			"bufferView":1,
			"componentType":5126,
			"count":4,
			"type":"VEC3"
		},
		{
			"bufferView":2,
			"componentType":5126,
			"count":4,
			"type":"VEC2"
		},
		{
			"bufferView":3,
			"componentType":5123,
			"count":6,
			"type":"SCALAR"
		},
		{
			"bufferView":4,
			"componentType":5126,
			"count":116,
			"max":[
				0.0098920539021492,
				0.34628069400787354,
				0.5331774353981018
			],
			"min":[
				-0.014144659042358398,
				-0.34628093242645264,
				-0.5331774353981018
			],
			"type":"VEC3"
		},
		{
			"bufferView":5,
			"componentType":5126,
			"count":116,
			"type":"VEC3"
		},
		{
			"bufferView":6,
			"componentType":5126,
			"count":116,
			"type":"VEC2"
		},
		{
			"bufferView":7,
			"componentType":5123,
			"count":204,
			"type":"SCALAR"
		},
		{
			"bufferView":8,
			"componentType":5126,
			"count":39,
			"max":[
				0.9581400752067566,
				0.0016904821386560798,
				0.3973503112792969
			],
			"min":[
				-0.9581400752067566,
				-0.14857420325279236,
				-0.3973502218723297
			],
			"type":"VEC3"
		},
		{
			"bufferView":9,
			"componentType":5126,
			"count":39,
			"type":"VEC3"
		},
		{
			"bufferView":10,
			"componentType":5126,
			"count":39,
			"type":"VEC2"
		},
		{
			"bufferView":11,
			"componentType":5123,
			"count":90,
			"type":"SCALAR"
		},
		{
			"bufferView":12,
			"componentType":5126,
			"count":112,
			"max":[
				0.9840131998062134,
				0.1999921202659607,
				0.4229753017425537
			],
			"min":[
				-1.0040922164916992,
				-0.511997640132904,
				-0.4326578378677368
			],
			"type":"VEC3"
		},
		{
			"bufferView":13,
			"componentType":5126,
			"count":112,
			"type":"VEC3"
		},
		{
			"bufferView":14,
			"componentType":5126,
			"count":112,
			"type":"VEC2"
		},
		{
			"bufferView":15,
			"componentType":5123,
			"count":186,
			"type":"SCALAR"
		},
		{
			"bufferView":16,
			"componentType":5126,
			"count":906,
			"max":[
				1.5,
				3.000479221343994,
				1.5
			],
			"min":[
				-1.593375563621521,
				-0.09380912780761719,
				-1.616493582725525
			],
			"type":"VEC3"
		},
		{
			"bufferView":17,
			"componentType":5126,
			"count":906,
			"type":"VEC3"
		},
		{
			"bufferView":18,
			"componentType":5126,
			"count":906,
			"type":"VEC2"
		},
		{
			"bufferView":19,
			"componentType":5123,
			"count":1500,
			"type":"SCALAR"
		},
		{
			"bufferView":20,
			"componentType":5126,
			"count":55076,
			"max":[
				0.9878777265548706,
				0.49547988176345825,
				0.23047366738319397
			],
			"min":[
				-0.9675449728965759,
				-1.44602632522583,
				-0.10879911482334137
			],
			"type":"VEC3"
		},
		{
			"bufferView":21,
			"componentType":5126,
			"count":55076,
			"type":"VEC3"
		},
		{
			"bufferView":22,
			"componentType":5126,
			"count":55076,
			"type":"VEC2"
		},
		{
			"bufferView":23,
			"componentType":5123,
			"count":84864,
			"type":"SCALAR"
		},
		{
			"bufferView":24,
			"componentType":5126,
			"count":172,
			"max":[
				0.2815404534339905,
				0.12955191731452942,
				0.31223809719085693
			],
			"min":[
				-0.2815403938293457,
				-0.02064800262451172,
				-0.27811169624328613
			],
			"type":"VEC3"
		},
		{
			"bufferView":25,
			"componentType":5126,
			"count":172,
			"type":"VEC3"
		},
		{
			"bufferView":26,
			"componentType":5126,
			"count":172,
			"type":"VEC2"
		},
		{
			"bufferView":27,
			"componentType":5123,
			"count":324,
			"type":"SCALAR"
		},
		{
			"bufferView":28,
			"componentType":5126,
			"count":176,
			"max":[
				0.2815404534339905,
				0.12904277443885803,
				0.31223809719085693
			],
			"min":[
				-0.2815403938293457,
				-0.021157115697860718,
				-0.27811169624328613
			],
			"type":"VEC3"
		},
		{
			"bufferView":29,
			"componentType":5126,
			"count":176,
			"type":"VEC3"
		},
		{
			"bufferView":30,
			"componentType":5126,
			"count":176,
			"type":"VEC2"
		},
		{
			"bufferView":31,
			"componentType":5123,
			"count":324,
			"type":"SCALAR"
		},
		{
			"bufferView":32,
			"componentType":5126,
			"count":192,
			"max":[
				0.2815404236316681,
				0.12853363156318665,
				0.31223803758621216
			],
			"min":[
				-0.2815403938293457,
				-0.021666288375854492,
				-0.27811169624328613
			],
			"type":"VEC3"
		},
		{
			"bufferView":33,
			"componentType":5126,
			"count":192,
			"type":"VEC3"
		},
		{
			"bufferView":34,
			"componentType":5126,
			"count":192,
			"type":"VEC2"
		},
		{
			"bufferView":35,
			"componentType":5123,
			"count":336,
			"type":"SCALAR"
		},
		{
			"bufferView":36,
			"componentType":5126,
			"count":492,
			"max":[
				0.28238359093666077,
				0.5647673606872559,
				0.2877350449562073
			],
			"min":[
				-0.28238382935523987,
				-0.02542712539434433,
				-0.27703237533569336
			],
			"type":"VEC3"
		},
		{
			"bufferView":37,
			"componentType":5126,
			"count":492,
			"type":"VEC3"
		},
		{
			"bufferView":38,
			"componentType":5126,
			"count":492,
			"type":"VEC2"
		},
		{
			"bufferView":39,
			"componentType":5123,
			"count":936,
			"type":"SCALAR"
		},
		{
			"bufferView":40,
			"componentType":5126,
			"count":60,
			"max":[
				2.5
			],
			"min":[
				0.041666666666666664
			],
			"type":"SCALAR"
		},
		{
			"bufferView":41,
			"componentType":5126,
			"count":60,
			"type":"VEC3"
		},
		{
			"bufferView":42,
			"componentType":5126,
			"count":60,
			"type":"VEC3"
		},
		{
			"bufferView":43,
			"componentType":5126,
			"count":60,
			"type":"VEC3"
		},
		{
			"bufferView":44,
			"componentType":5126,
			"count":60,
			"type":"VEC3"
		},
		{
			"bufferView":45,
			"componentType":5126,
			"count":60,
			"type":"VEC3"
		},
		{
			"bufferView":46,
			"componentType":5126,
			"count":60,
			"type":"VEC3"
		}
	],
	"bufferViews":[
		{
			"buffer":0,
			"byteLength":48,
			"byteOffset":0,
			"target":34962
		},
		{
			"buffer":0,
			"byteLength":48,
			"byteOffset":48,
			"target":34962
		},
		{
			"buffer":0,
			"byteLength":32,
			"byteOffset":96,
			"target":34962
		},
		{
			"buffer":0,
			"byteLength":12,
			"byteOffset":128,
			"target":34963
		},
		{
			"buffer":0,
			"byteLength":1392,
			"byteOffset":140,
			"target":34962
		},
		{
			"buffer":0,
			"byteLength":1392,
			"byteOffset":1532,
			"target":34962
		},
		{
			"buffer":0,
			"byteLength":928,
			"byteOffset":2924,
			"target":34962
		},
		{
			"buffer":0,
			"byteLength":408,
			"byteOffset":3852,
			"target":34963
		},
		{
			"buffer":0,
			"byteLength":468,
			"byteOffset":4260,
			"target":34962
		},
		{
			"buffer":0,
			"byteLength":468,
			"byteOffset":4728,
			"target":34962
		},
		{
			"buffer":0,
			"byteLength":312,
			"byteOffset":5196,
			"target":34962
		},
		{
			"buffer":0,
			"byteLength":180,
			"byteOffset":5508,
			"target":34963
		},
		{
			"buffer":0,
			"byteLength":1344,
			"byteOffset":5688,
			"target":34962
		},
		{
			"buffer":0,
			"byteLength":1344,
			"byteOffset":7032,
			"target":34962
		},
		{
			"buffer":0,
			"byteLength":896,
			"byteOffset":8376,
			"target":34962
		},
		{
			"buffer":0,
			"byteLength":372,
			"byteOffset":9272,
			"target":34963
		},
		{
			"buffer":0,
			"byteLength":10872,
			"byteOffset":9644,
			"target":34962
		},
		{
			"buffer":0,
			"byteLength":10872,
			"byteOffset":20516,
			"target":34962
		},
		{
			"buffer":0,
			"byteLength":7248,
			"byteOffset":31388,
			"target":34962
		},
		{
			"buffer":0,
			"byteLength":3000,
			"byteOffset":38636,
			"target":34963
		},
		{
			"buffer":0,
			"byteLength":660912,
			"byteOffset":41636,
			"target":34962
		},
		{
			"buffer":0,
			"byteLength":660912,
			"byteOffset":702548,
			"target":34962
		},
		{
			"buffer":0,
			"byteLength":440608,
			"byteOffset":1363460,
			"target":34962
		},
		{
			"buffer":0,
			"byteLength":169728,
			"byteOffset":1804068,
			"target":34963
		},
		{
			"buffer":0,
			"byteLength":2064,
			"byteOffset":1973796,
			"target":34962
		},
		{
			"buffer":0,
			"byteLength":2064,
			"byteOffset":1975860,
			"target":34962
		},
		{
			"buffer":0,
			"byteLength":1376,
			"byteOffset":1977924,
			"target":34962
		},
		{
			"buffer":0,
			"byteLength":648,
			"byteOffset":1979300,
			"target":34963
		},
		{
			"buffer":0,
			"byteLength":2112,
			"byteOffset":1979948,
			"target":34962
		},
		{
			"buffer":0,
			"byteLength":2112,
			"byteOffset":1982060,
			"target":34962
		},
		{
			"buffer":0,
			"byteLength":1408,
			"byteOffset":1984172,
			"target":34962
		},
		{
			"buffer":0,
			"byteLength":648,
			"byteOffset":1985580,
			"target":34963
		},
		{
			"buffer":0,
			"byteLength":2304,
			"byteOffset":1986228,
			"target":34962
		},
		{
			"buffer":0,
			"byteLength":2304,
			"byteOffset":1988532,
			"target":34962
		},
		{
			"buffer":0,
			"byteLength":1536,
			"byteOffset":1990836,
			"target":34962
		},
		{
			"buffer":0,
			"byteLength":672,
			"byteOffset":1992372,
			"target":34963
		},
		{
			"buffer":0,
			"byteLength":5904,
			"byteOffset":1993044,
			"target":34962
		},
		{
			"buffer":0,
			"byteLength":5904,
			"byteOffset":1998948,
			"target":34962
		},
		{
			"buffer":0,
			"byteLength":3936,
			"byteOffset":2004852,
			"target":34962
		},
		{
			"buffer":0,
			"byteLength":1872,
			"byteOffset":2008788,
			"target":34963
		},
		{
			"buffer":0,
			"byteLength":240,
			"byteOffset":2010660
		},
		{
			"buffer":0,
			"byteLength":720,
			"byteOffset":2010900
		},
		{
			"buffer":0,
			"byteLength":720,
			"byteOffset":2011620
		},
		{
			"buffer":0,
			"byteLength":720,
			"byteOffset":2012340
		},
		{
			"buffer":0,
			"byteLength":720,
			"byteOffset":2013060
		},
		{
			"buffer":0,
			"byteLength":720,
			"byteOffset":2013780
		},
		{
			"buffer":0,
			"byteLength":720,
			"byteOffset":2014500
		}
	],
	"samplers":[
		{
			"magFilter":9729,
			"minFilter":9987
		}
	],
	"buffers":[
		{
			"byteLength":2015220,
			"uri":"room.bin"
		}
	]
}
